<?xml version="1.0"?>
<svg viewBox="0 0 256 256" width="60px" height="60px" xmlns="http://www.w3.org/2000/svg" xmlns:xlink="http://www.w3.org/1999/xlink">
 <linearGradient id="b" x1="129" x2="129" y1="11" y2="245" gradientUnits="userSpaceOnUse">
  <stop stop-color="#494949" offset="0"/>
  <stop offset="1"/>
 </linearGradient>
 <linearGradient id="c" x1="29.053" x2="226.95" y1="29.053" y2="226.95" gradientUnits="userSpaceOnUse">
  <stop stop-color="#fff" offset="0"/>
  <stop stop-color="#dadada" offset="1"/>
 </linearGradient>
 <radialGradient id="d" cx="146.02" cy="139.36" r="49.252" gradientUnits="userSpaceOnUse">
  <stop stop-color="#900" offset="0"/>
  <stop stop-color="#f8310e" offset="1"/>
 </radialGradient>
 <linearGradient id="a" gradientUnits="userSpaceOnUse">
  <stop stop-color="#fff" offset="0"/>
  <stop stop-color="#f8310e" offset="1"/>
 </linearGradient>
 <linearGradient id="e" x1="75.059" x2="79.012" y1="175.89" y2="186.43" xlink:href="#a"/>
 <linearGradient id="f" x1="190.09" x2="188.1" y1="156.24" y2="164.17" xlink:href="#a"/>
 <linearGradient id="g" x1="-83.334" x2="-83.334" y1="43.826" y2="15.704" gradientTransform="rotate(10.423 -795.35 1553.4)" gradientUnits="userSpaceOnUse">
  <stop stop-color="#cf0000" offset="0"/>
  <stop stop-color="#f8310e" offset="1"/>
 </linearGradient>
 <linearGradient id="h" x1="133.07" x2="133.76" y1="161.58" y2="166.37" xlink:href="#a"/>
 <linearGradient id="i" x1="140.35" x2="140.35" y1="45.418" y2="56.588" xlink:href="#a"/>
 <path d="m44 15.5c-9.37 0-17 7.63-17 17v200c0 9.37 7.63 17 17 17h176c9.38 0 17-7.63 17-17v-200c0-9.37-7.62-17-17-17h-176z" opacity=".2"/>
 <path d="m42 13.5c-9.37 0-17 7.63-17 17v200c0 9.37 7.63 17 17 17h176c9.38 0 17-7.63 17-17v-200c0-9.37-7.62-17-17-17h-176z" opacity=".2"/>
 <path d="m40 12.5c-9.37 0-17 7.63-17 17v200c0 9.37 7.63 17 17 17h176c9.38 0 17-7.63 17-17v-200c0-9.37-7.62-17-17-17h-176z" opacity=".2"/>
 <path d="m41 11c-9.37 0-17 7.63-17 17v200c0 9.37 7.63 17 17 17h176c9.38 0 17-7.63 17-17v-200c0-9.37-7.62-17-17-17h-176z" fill="url(#b)"/>
 <path d="m28 228c0 6.63 5.37 12 12 12h176c6.63 0 12-5.37 12-12v-200c0-6.63-5.37-12-12-12h-176c-6.63 0-12 5.37-12 12v200z" fill="#fff"/>
 <path d="m40 21c-3.86 0-7 3.14-7 7v200c0 3.86 3.14 7 7 7h176c3.86 0 7-3.14 7-7v-200c0-3.86-3.14-7-7-7h-176z" fill="url(#c)"/>
 <path d="m151.08 56.005c-18.6 11.3 27.7 150 50.292 120.65 25.4-32.9-174 9.95-136.04 27.712 44.6 20.8 120-169 85.75-148.36z" fill="none"/>
 <path d="m145.26 51.866c-18.6 11.3 27.7 150 50.299 120.65 25.4-32.9-174 9.95-136.04 27.71 44.6 20.8 120-169 85.739-148.36z" fill="none"/>
 <path d="m145.96 52.801c-14 9.45-5.52 36.7-2.447 49.556 5.62 23.4 14 48.2 27.931 68.118 4.09 5.84 9.3 12.2 16.765 13.404 7.25 1.16 14.4-4.05 17.536-10.276 6.52-13-16.1-13.6-23.26-13.656-21.3-.135-43 4.09-63.641 8.799-18.8 4.29-38.9 9.28-55.742 19.001-4.43 2.55-9.75 6.32-10.542 11.756-.765 5.26 6.6 8.24 10.488 9.153 17.3 4.07 33.1-11.5 43.28-23.326 22.5-26.2 38.5-60.1 49.56-92.599 3.64-10.7 8.14-23.2 7.146-34.688-.849-9.94-10.1-9.33-17.069-5.239-6.79 3.97.365 8.07 5.523 5.061 1.24-.732-1.07-.572-.501-.004.696.699.963 3.67.97 5.307.047 7.81-2.32 15.7-4.532 23.109-6.88 23-17.1 45.3-29.044 66.125-9.42 16.4-21.9 38.6-39.77 47.217-4.65 2.26-10.5 2.48-14.427-1.459-.743-.75-.482-1.36-.156-1.839.777-1.14 3.12-2.66 5.275-3.895 16.7-9.6 37.6-13.7 56.145-17.697 19.3-4.12 40.2-8.26 59.963-6.604 3.36.278 10.1 1.15 10.266 4.056.049 1.11-1.01 3.09-2.096 3.908-1.03.768.973.063-.244-.13-1.34-.21-2.67-1.26-3.703-2.055-7.56-5.75-12.3-15.4-16.488-23.652-5.79-11.5-10.3-23.7-14.191-35.973-3.7-11.7-6.74-23.8-8.271-36.029-.579-4.66-.855-9.37-.525-14.06.112-1.52.345-3.03.773-4.499.279-.941 1.59-2.52.558-1.823 6.48-4.38-.494-8.46-5.523-5.06l-.007-.007z" opacity=".2"/>
 <path d="m144.23 51.069c-14 9.45-5.52 36.7-2.444 49.556 5.61 23.4 14 48.2 27.926 68.117 4.09 5.84 9.3 12.2 16.768 13.404 7.25 1.17 14.4-4.05 17.533-10.277 6.52-13-16.1-13.6-23.257-13.656-21.3-.135-43 4.09-63.644 8.799-18.8 4.29-38.9 9.28-55.74 19.001-4.43 2.55-9.75 6.32-10.542 11.757-.765 5.26 6.6 8.24 10.487 9.154 17.3 4.07 33.1-11.5 43.282-23.328 22.5-26.2 38.5-60.1 49.561-92.598 3.64-10.7 8.14-23.2 7.148-34.688-.852-9.95-10.1-9.33-17.072-5.241-6.79 3.97.365 8.07 5.521 5.062 1.25-.731-1.07-.571-.499-.004.696.699.964 3.67.971 5.307.049 7.81-2.32 15.7-4.535 23.109-6.88 23-17.1 45.3-29.044 66.123-9.42 16.4-21.9 38.6-39.768 47.218-4.65 2.26-10.5 2.48-14.428-1.458-.742-.75-.483-1.35-.156-1.84.777-1.14 3.12-2.65 5.276-3.895 16.7-9.6 37.6-13.7 56.143-17.697 19.3-4.12 40.2-8.26 59.964-6.605 3.36.279 10.1 1.15 10.264 4.058.051 1.11-1.01 3.09-2.094 3.907-1.03.769.973.063-.246-.131-1.34-.21-2.66-1.26-3.7-2.055-7.56-5.74-12.3-15.4-16.491-23.649-5.79-11.5-10.3-23.7-14.188-35.974-3.7-11.7-6.74-23.8-8.271-36.029-.579-4.66-.855-9.38-.524-14.062.109-1.52.344-3.03.775-4.497.276-.941 1.59-2.52.553-1.823 6.48-4.39-.492-8.46-5.521-5.059l-.008-.006z" opacity=".2"/>
 <path d="m142.49 49.335c-14 9.45-5.52 36.7-2.447 49.557 5.61 23.4 14 48.2 27.928 68.118 4.09 5.84 9.3 12.2 16.766 13.402 7.25 1.17 14.4-4.05 17.535-10.276 6.52-13-16.1-13.6-23.257-13.654-21.3-.135-43 4.09-63.644 8.8-18.8 4.29-38.9 9.28-55.74 18.998-4.43 2.56-9.75 6.32-10.543 11.759-.764 5.26 6.6 8.24 10.487 9.152 17.3 4.07 33.1-11.5 43.282-23.326 22.5-26.2 38.5-60.1 49.56-92.599 3.64-10.7 8.14-23.2 7.148-34.69-.852-9.95-10.1-9.33-17.072-5.24-6.79 3.97.365 8.07 5.524 5.061 1.25-.729-1.07-.571-.502-.003.696.7.966 3.67.971 5.306.049 7.81-2.32 15.7-4.533 23.109-6.88 23-17.1 45.3-29.043 66.125-9.42 16.4-21.9 38.6-39.771 47.216-4.65 2.26-10.5 2.48-14.428-1.459-.738-.749-.478-1.35-.155-1.839.776-1.14 3.12-2.66 5.277-3.894 16.7-9.6 37.6-13.7 56.144-17.695 19.3-4.12 40.2-8.27 59.962-6.607 3.37.281 10.1 1.15 10.266 4.056.052 1.11-1.01 3.09-2.096 3.909-1.03.767.976.063-.243-.131-1.34-.21-2.67-1.26-3.703-2.053-7.56-5.75-12.3-15.4-16.486-23.653-5.79-11.5-10.3-23.7-14.193-35.972-3.7-11.7-6.74-23.8-8.269-36.03-.582-4.66-.858-9.37-.527-14.06.112-1.53.347-3.03.775-4.5.276-.941 1.59-2.52.556-1.823 6.48-4.39-.495-8.46-5.524-5.059l-.005-.005z" fill="url(#d)"/>
 <path d="m59.311 196.07c-1.12-1.14-1.1-2.31-.993-2.908l.607-1.413c.532-.776 1.72-2.08 5.931-4.5 8.33-4.8 18.4-8.66 31.571-12.149l5.175-1.371c1.56-1.17 2.75-2.59 3.153-4.188l-.218.326-.743.184c-12.7 3.17-29.1 7.84-43.18 15.931-3.69 2.13-8.69 5.48-9.526 10.049l-.048.283c-.326 2.24 1.93 4.12 4.621 5.415 2.47-1.24 5-2.18 7.41-3.114-1.4-.608-2.67-1.44-3.76-2.545z" fill="url(#e)"/>
 <path d="m200.92 163.83c-1.21-1.96-5.66-5.28-21.911-5.381l-2.145.082-1.317.058c.228 1.41.626 2.68 1.179 3.855l4.396.2s.978.046.982.048c7.97.661 11.9 2.6 12.068 5.932l-.07.958c-.216 1.19-.912 2.54-1.768 3.573 1.44.412 2.91.777 4.385 1.107 1.59-1.5 2.9-3.24 3.793-5.008 1.13-2.26 1.26-4.03.408-5.424z" fill="url(#f)"/>
 <path d="m192.34 173.16c-.33.401-.675.758-1.036 1.033l-1.017.771s-.46-.285-.905-.571c-1.69-.325-3.17-1.45-4.268-2.284-2.2-1.67-4.16-3.63-6.316-6.288l-1.873-2.304c-2.5.703-5.02 1.48-7.512 2.09l.181.276c4.14 5.92 8.88 11.5 15.462 12.592 4.33.692 8.54-1.28 11.669-4.208-1.47-.329-2.94-.695-4.385-1.107z" fill="url(#g)"/>
 <path d="m115.94 167.17-4.932 1.123.506-.738c-2.57 1.31-5.23 2.56-7.744 3.984-.567.799-1.3 1.54-2.171 2.19l.168-.045c2.56-.966 5.28-2.13 8.247-1.854l9.659-2.095 1.896-.4c14.4-3.08 29.7-6.14 44.652-6.851l.18-.012c-1.31-1.73-3.92-2.09-5.751-3.099-15.9 1.53-31.5 4.78-44.71 7.797z" fill="url(#h)"/>
 <path d="m176.03 162.42.693.028c-.553-1.17-.951-2.45-1.179-3.855l-1.786.083-.502-1.04-5.344-9.967c-5.18-10.3-9.86-22.2-14.304-36.264-1.84-5.81-3.44-11.6-4.758-17.065l-.138-.576.871-2.415.969-2.715.422-1.238c2.15-6.25 4.57-13.3 5.845-20.26.849-4.63 1.11-8.68.785-12.39-.239-2.8-1.24-4.68-2.958-5.567-2.57-1.34-6.95-.605-11.163 1.858l-.047.04c-.685.41-1.16.809-1.493 1.269l-.089.126-.114.108c-2.29 2.28-3.82 5.41-4.533 9.308-1.87 10.2 1.55 23.8 3.818 32.805l.436 1.729-.204.561c-6.32 17.6-14.6 35.4-24.64 52.931l-.119.206c-3.38 5.9-7.22 12.6-11.544 19.113l-.202.312c-.18.705-.533 1.37-.982 1.997 2.51-1.42 5.17-2.67 7.744-3.984l2.37-3.425c10.4-15.1 19.8-32.7 27.95-52.357l2.153-5.222 1.559 5.434c4.97 17.4 10.9 31.9 18.026 44.305l1.532 2.666-3.063.278c-.466.038-.926.1-1.392.142 1.83 1.01 4.44 1.36 5.751 3.099l.966-.046 1.299 2.038.74 1.137c2.49-.612 5.01-1.39 7.512-2.09l-.887-1.097m-26.918-91.375-.249 1.031-3.881-.252c-.413-4.48-.49-7.95-.258-11.238v-.001l.349-2.799.502-2.112c0-.003 2.76-5.98 2.764-5.985l1.472 4.95c.466 1.45.64 3.63.646 5.056.019 2.91-.278 5.99-.907 9.405l-.438 1.945z" fill="url(#i)"/>
 <path d="M0 0H256V256H0Z" fill="none"/>
</svg>
